<?xml version="1.0" encoding="utf-8"?>
<!-- Generator: Adobe Illustrator 21.0.2, SVG Export Plug-In . SVG Version: 6.00 Build 0)  -->
<svg version="1.1" id="Layer_1" xmlns="http://www.w3.org/2000/svg" xmlns:xlink="http://www.w3.org/1999/xlink" x="0px" y="0px"
	 width="16.1px" height="16.5px" viewBox="0 0 16.1 16.5" style="enable-background:new 0 0 16.1 16.5;" xml:space="preserve">
<style type="text/css">
	.st0{opacity:0.62;fill:#323A45;}
</style>
<path class="st0" d="M11.4,10.4c0.9-1.1,1.4-2.6,1.4-4C12.8,2.9,9.9,0,6.4,0C2.9,0,0,2.9,0,6.4s2.9,6.4,6.4,6.4
	c1.3,0,2.5-0.4,3.6-1.1l4.8,4.8l1.3-1.3L11.4,10.4z M11.7,6.4c0,2.9-2.4,5.3-5.3,5.3S1.1,9.3,1.1,6.4s2.4-5.3,5.3-5.3
	S11.7,3.5,11.7,6.4z"/>
</svg>
